<svg xmlns="http://www.w3.org/2000/svg" viewBox="0 0 32 32" width="32" height="32">
  <rect width="32" height="32" rx="6" fill="#095728"/>
  <!-- Question mark: font-independent path representation -->
  <path d="M13.2 10.4c0-2.6 2.1-3.9 4.3-3.9 2.4 0 4.1 1.5 4.1 3.6 0 2.2-1.4 3.1-2.8 4.0-1.0 0.7-1.6 1.2-1.6 2.3v0.8h-2.4v-1.1c0-1.8 0.8-2.6 2.1-3.4 1.0-0.7 1.6-1.2 1.6-2.3 0-1.1-0.8-1.8-1.9-1.8-1.2 0-2.0 0.8-2.0 2.0h-1.4zM14.5 20.2h3.0v3.0h-3.0z" fill="#ffffff"/>
  <!-- Open book base -->
  <path d="M4.5 24.5v-14c0-0.5 0.4-1 0.9-1h6.3c1.2 0 2.3 0.5 3.3 1.3v14.7c-1.0-0.8-2.1-1.2-3.3-1.2H5.4c-0.5 0-0.9-0.3-0.9-0.8z" fill="none" stroke="#ffffff" stroke-width="1.2" stroke-linejoin="round" opacity="0.5"/>
</svg>
